<svg id="visual" viewBox="0 0 450 900" width="450" height="900" xmlns="http://www.w3.org/2000/svg" version="1.1">
    <rect x="0" y="0" width="450" height="900" fill="#80a7d9"></rect>
    <path d="M0 620L15 591C30 562 60 504 90 482.5C120 461 150 476 180 491.3C210 506.7 240 522.3 270 541C300 559.7 330 581.3 360 576.3C390 571.3 420 539.7 435 523.8L450 508L450 901L435 901C420 901 390 901 360 901C330 901 300 901 270 901C240 901 210 901 180 901C150 901 120 901 90 901C60 901 30 901 15 901L0 901Z"
          fill="#ffe293" stroke-linecap="round" stroke-linejoin="miter"></path>
</svg>