<svg id="visual" viewBox="0 0 900 600" width="900" height="600" xmlns="http://www.w3.org/2000/svg" xmlns:xlink="http://www.w3.org/1999/xlink" version="1.1"><rect x="0" y="0" width="900" height="600" fill="#80a7d9"></rect><path d="M695 600L661 580C627 560 559 520 527.2 480C495.3 440 499.7 400 520.8 360C542 320 580 280 609.5 240C639 200 660 160 625.8 120C591.7 80 502.3 40 457.7 20L413 0L900 0L900 20C900 40 900 80 900 120C900 160 900 200 900 240C900 280 900 320 900 360C900 400 900 440 900 480C900 520 900 560 900 580L900 600Z" fill="#ffe293" stroke-linecap="round" stroke-linejoin="miter"></path></svg>